<svg xmlns="http://www.w3.org/2000/svg" viewBox="0 0 512 512" width="512" height="512">
  <defs>
    <linearGradient id="g1" x1="0" y1="0" x2="1" y2="1">
      <stop offset="0" stop-color="#FFEB3B"/>
      <stop offset="1" stop-color="#FBC02D"/>
    </linearGradient>
    <linearGradient id="g2" x1="0" y1="0" x2="1" y2="1">
      <stop offset="0" stop-color="#F44336"/>
      <stop offset="1" stop-color="#D32F2F"/>
    </linearGradient>
  </defs>

  <rect x="0" y="0" width="512" height="512" rx="64" fill="#FFD600"/>

  <g transform="translate(128,110)">
    <circle cx="128" cy="40" r="36" fill="#B71C1C"/>
    <ellipse cx="128" cy="160" rx="110" ry="115" fill="url(#g2)"/>
    <rect x="30" y="160" width="196" height="22" rx="11" fill="#C62828"/>
    <g stroke="#8D1B14" stroke-width="14" stroke-linecap="round">
      <line x1="28" y1="120" x2="6" y2="98"/>
      <line x1="228" y1="120" x2="250" y2="98"/>
      <line x1="28" y1="220" x2="6" y2="242"/>
      <line x1="228" y1="220" x2="250" y2="242"/>
    </g>
  </g>

  <g transform="translate(170,170) rotate(25 86 86)">
    <path d="M40 60 L100 0 C120 -5 140 15 135 35 L95 75 L140 120 C152 132 152 152 140 164 L128 176 C116 188 96 188 84 176 L40 132 Z" fill="url(#g1)"/>
    <circle cx="95" cy="75" r="10" fill="#FFF59D"/>
  </g>
</svg>
